<?xml version="1.0" encoding="UTF-8"?>
<svg xmlns="http://www.w3.org/2000/svg" viewBox="0 0 646.16 425.29">
  <defs>
    <style>
      .cls-1, .cls-2 {
        opacity: .3;
      }

      .cls-1, .cls-3 {
        fill: #bc4d33;
      }

      .cls-4 {
        fill: #4b6590;
      }

      .cls-5, .cls-6 {
        fill: #fff;
      }

      .cls-7 {
        fill: #d1634a;
      }

      .cls-8 {
        fill: #76b7b3;
      }

      .cls-9, .cls-10, .cls-2 {
        fill: #7a8db5;
      }

      .cls-11 {
        fill: #de7356;
      }

      .cls-12, .cls-13, .cls-14, .cls-15 {
        fill: #2f3f5c;
      }

      .cls-13, .cls-10 {
        opacity: .1;
      }

      .cls-16, .cls-17 {
        fill: #c1eee6;
      }

      .cls-16, .cls-6, .cls-14, .cls-18 {
        opacity: .2;
      }

      .cls-19 {
        fill: #ffc1b7;
      }

      .cls-20 {
        fill: #cc5e44;
      }

      .cls-21 {
        fill: #ffc330;
      }

      .cls-22 {
        fill: #ffa398;
      }

      .cls-23 {
        fill: #88d2d0;
      }

      .cls-24 {
        fill: #ffe600;
        opacity: .7;
      }

      .cls-25 {
        fill: #dd9b94;
      }

      .cls-18 {
        fill: #182333;
      }

      .cls-15 {
        opacity: .5;
      }
    </style>
  </defs>
  <g id="BACKGROUND">
    <path class="cls-24" d="M330.97,57.86s40.46,31.6,110.23-2.75c69.77-34.34,163.25-30.22,189.77,54.95,26.51,85.17,31.4,218.67-96.28,222.54-115.4,3.5-152.82,22.16-196.08,52.39-43.26,30.22-202.45,41.65-282.32-57.89C-7.66,247.41-22.72,163.1,40.44,77.66,119.12-28.78,231.9-16.32,330.97,57.86Z"/>
  </g>
  <g id="OBJECTS">
    <g>
      <g>
        <rect class="cls-5" x="175.71" y="101.91" width="298.3" height="43.19" rx="7.2" ry="7.2"/>
        <path class="cls-4" d="M466.81,101.91h-46.34v43.19h46.34c3.98,0,7.2-3.22,7.2-7.2v-28.79c0-3.98-3.22-7.2-7.2-7.2Z"/>
        <g>
          <path class="cls-5" d="M439.55,106.51c-8.28,2.66-12.84,11.53-10.18,19.81s11.53,12.84,19.81,10.18c8.28-2.66,12.84-11.53,10.18-19.81s-11.53-12.84-19.81-10.18Zm17.33,10.97c2.22,6.91-1.58,14.31-8.49,16.53-6.91,2.22-14.31-1.58-16.53-8.49-2.22-6.91,1.58-14.31,8.49-16.53,6.91-2.22,14.31,1.58,16.53,8.49Z"/>
          <path class="cls-5" d="M465.98,137.09c.64,.52,.74,1.46,.22,2.1h0c-.52,.64-1.46,.74-2.1,.22l-8.64-6.97c-.64-.52-.74-1.46-.22-2.1h0c.52-.64,1.46-.74,2.1-.22l8.64,6.97Z"/>
        </g>
      </g>
      <g>
        <polygon class="cls-9" points="363.84 159.22 357.08 131.75 382.85 143.69 377.03 149.08 383.29 156.8 377.03 161.89 370.91 154.03 363.84 159.22"/>
        <polygon class="cls-4" points="363.84 159.22 357.08 131.75 380.2 159.31 377.03 161.89 370.91 154.03 363.84 159.22"/>
      </g>
    </g>
    <g>
      <path class="cls-23" d="M285.62,311.93s-12.82-29.13,2.99-64.99c0,0,.98,10.76-.73,45.31,0,0-1.15-15.06,14.62-40.69,0,0-2.8,24.62-12.51,52.83,0,0,5.6-22.61,15.87-30.34,0,0-1.06,23.97-20.23,37.88Z"/>
      <g>
        <path class="cls-4" d="M253.58,224.68c10.01-1.36,21.18-2.16,24.58,9.66,1.49,5.19-.17,10.56-.51,15.79-.29,4.37,1.2,8.43,3.75,11.92,4.89,6.7,14.75,6.27,20.45,12.23,7.18,7.5,4.96,20.81,3.19,29.92-.14,.71,.95,1.01,1.08,.3,1.77-9.12,3.08-19.06-1.17-27.69-5.06-10.28-18.58-8.41-24.28-17.9-3.73-6.2-.89-13.55-.77-20.2,.07-4.17-1.5-8.41-4.14-11.59-5.18-6.25-15.57-4.45-22.47-3.52-.72,.1-.41,1.18,.3,1.08h0Z"/>
        <path class="cls-4" d="M255.16,223.8s.79,11.87-14.67,7.16c0,0,5.11-12.21,14.67-7.16Z"/>
        <path class="cls-4" d="M289.82,267.49s8.94,7.85-5.34,15.42c0,0-5-12.25,5.34-15.42Z"/>
        <path class="cls-4" d="M281.28,261.91s.79,11.87-14.67,7.16c0,0,5.11-12.21,14.67-7.16Z"/>
        <path class="cls-4" d="M284.79,263.85s-4.71-10.93,11.44-11.64c0,0-.74,13.21-11.44,11.64Z"/>
        <path class="cls-4" d="M278.1,252.74s-5.99,10.28-16.16-2.27c0,0,11.06-7.26,16.16,2.27Z"/>
        <path class="cls-4" d="M279.23,244.77s5.45-10.57,16.26,1.45c0,0-10.68,7.82-16.26-1.45Z"/>
        <path class="cls-4" d="M278.83,233.39s2.09-11.71,15.96-3.42c0,0-7.9,10.62-15.96,3.42Z"/>
        <path class="cls-4" d="M278.81,238.15s-2.99,11.52-16.17,2.17c0,0,8.7-9.98,16.17-2.17Z"/>
        <path class="cls-4" d="M274.69,226.33s-5.74-10.42,10.26-12.69c0,0,.54,13.22-10.26,12.69Z"/>
        <path class="cls-4" d="M267.37,224.17s7.56,9.18-7.74,14.37c0,0-2.97-12.9,7.74-14.37Z"/>
        <path class="cls-4" d="M263.81,223.01s-11.9-.13-6-15.18c0,0,11.78,6.04,6,15.18Z"/>
      </g>
      <path class="cls-23" d="M298.28,402.1s-42.8-36.98-92.68-36.39c0,0,12.11,6.53,53.42,21.79,0,0-17.06-8.88-54.94-3.22,0,0,30.22,9.02,68.1,11.75,0,0-29.27-4.73-43.45,3.42,0,0,43.7,18.16,69.56,2.65Z"/>
      <path class="cls-23" d="M285.45,314.35s3.46-31.64-22.4-61.08c0,0,2.3,10.56,14.32,43,0,0-3.43-14.71-26.18-34.41,0,0,10.08,22.63,27.82,46.62,0,0-12.14-19.87-24.26-24.16,0,0,8.22,22.54,30.69,30.04Z"/>
      <path class="cls-23" d="M387.98,230.77s21.82-23.17,18.92-62.24c0,0-4.53,9.81-14.47,42.95,0,0,6.12-13.81-.17-43.23,0,0-5.59,24.14-5.88,53.97,0,0,2.28-23.18-4.81-33.9,0,0-7.02,22.94,6.4,42.46Z"/>
      <path class="cls-23" d="M432.11,280.72s-2.9-31.23,21.31-61.46c0,0-2.23,10.56-13.67,43.21,0,0,3.32-14.73,24.56-35.17,0,0-9.54,22.85-26.19,47.34,0,0,11.43-20.19,22.69-24.93,0,0-7.82,22.68-28.69,31.02Z"/>
      <path class="cls-23" d="M400.06,401.14s7.08-40.64,51.75-64.33c0,0-6.89,11.89-34.54,45.98,0,0,20.99-24.49,58.01-37.69,0,0-32.6,31.01-64.64,51.93,0,0,23.2-18.57,40.65-17.97,0,0-19.04,23.77-51.22,22.08Z"/>
      <g>
        <path class="cls-4" d="M191.33,342.58c4.32,5.7,9.21,11.91,16.14,14.52,8.69,3.26,18.45-.2,26.76,3.49,7.15,3.17,11.33,10.97,17.87,15.16,9.41,6.02,20.75,3.14,30.39-.54,1.04-.4,.59-2.09-.47-1.69-11.02,4.21-22.67,6.31-32.46-1.77-4.99-4.13-8.58-9.63-14.46-12.67-6.72-3.47-15-1.09-22.23-2.27-8.95-1.46-14.85-8.25-20.05-15.11-.67-.89-2.19-.02-1.51,.88h0Z"/>
        <path class="cls-4" d="M195.32,345.88s-12.43,2.43-9.52-14.52c0,0,13.57,3.76,9.52,14.52Z"/>
        <path class="cls-4" d="M242.63,364.82s-11.6-5.08,.44-17.36c0,0,9.02,10.82-.44,17.36Z"/>
        <path class="cls-4" d="M255.67,377.05s9.71,8.12-5.28,16.55c0,0-5.63-12.91,5.28-16.55Z"/>
        <path class="cls-4" d="M246.88,371.35s2.66,12.38-14.34,9.79c0,0,3.5-13.64,14.34-9.79Z"/>
        <path class="cls-4" d="M233.84,359.98s5.45,11.43-11.69,12.84c0,0,.26-14.08,11.69-12.84Z"/>
        <path class="cls-4" d="M222.14,357.69s-10.73-4.03-.44-15.71c0,0,8.68,9.34,.44,15.71Z"/>
        <path class="cls-4" d="M211.33,358.32s10.83,6.56-2.71,17.15c0,0-7.52-11.91,2.71-17.15Z"/>
        <path class="cls-4" d="M198.49,350.73s-.46,12.65-16.31,5.97c0,0,6.74-12.36,16.31-5.97Z"/>
        <path class="cls-4" d="M206.31,354.84s-9.88-7.91,4.93-16.65c0,0,5.91,12.79-4.93,16.65Z"/>
      </g>
      <g>
        <path class="cls-8" d="M307.78,396.45s11.18-50.93-14.91-55.28c-31.54-5.26-9.83-34.06-35.4-38.51s-10.12-35.86-29.03-44.75c-18.9-8.9-17.79,18.35-5.56,34.47,12.23,16.12-17.24,27.8,16.68,48.93,33.91,21.13-11.68,36.69,45.59,56.15,57.27,19.46,22.63-1.01,22.63-1.01Z"/>
        <path class="cls-16" d="M309.22,404.76c-.67-.89-1.35-1.8-2.07-2.72-52.1-67.6-88.09-145.11-88.19-145.33-8.44,3.47-5.69,23,3.92,35.67,12.23,16.12-17.24,27.8,16.68,48.93s-11.68,36.69,45.59,56.15c11.26,3.83,18.96,6.1,24.07,7.3Z"/>
      </g>
      <g>
        <path class="cls-8" d="M312.27,399.21s42.53-30.17,26.15-50.93c-19.8-25.1,15.63-31.81-.3-52.31s16.62-33.35,8.62-52.64c-8.01-19.3-25.51,1.61-27.3,21.77-1.79,20.16-31.45,8.98-20.56,47.43,10.89,38.44-33.32,19.3-4.03,72.22s17.43,14.47,17.43,14.47Z"/>
        <path class="cls-16" d="M307.74,406.33c.11-1.11,.21-2.24,.3-3.41,6.91-85.07,32.4-166.63,32.48-166.86-8.58-3.1-19.68,13.19-21.09,29.03-1.79,20.16-31.45,8.98-20.56,47.43s-33.32,19.3-4.03,72.22c5.76,10.41,9.92,17.27,12.9,21.59Z"/>
      </g>
      <g>
        <path class="cls-8" d="M363.96,321.56s-10.63-48.43,14.17-52.56c29.99-5,9.34-32.39,33.66-36.62,24.32-4.23,9.63-34.1,27.6-42.55,17.97-8.46,16.92,17.45,5.29,32.78-11.63,15.33,16.39,26.43-15.86,46.52-32.25,20.09,11.1,34.89-43.35,53.4-54.45,18.5-21.51-.96-21.51-.96Z"/>
        <path class="cls-16" d="M362.59,329.47c.64-.85,1.28-1.71,1.96-2.59,49.54-64.28,83.76-137.98,83.86-138.19,8.02,3.3,5.41,21.87-3.73,33.92-11.63,15.33,16.39,26.43-15.86,46.52-32.25,20.09,11.1,34.89-43.35,53.4-10.71,3.64-18.03,5.8-22.89,6.94Z"/>
      </g>
    </g>
    <g>
      <ellipse class="cls-13" cx="438.74" cy="414.13" rx="180.82" ry="9.71"/>
      <g>
        <g>
          <g>
            <path class="cls-12" d="M431.11,405.32s-52.16,18.25,8.18,7.45l1.52-10.76-9.7,3.31Z"/>
            <path class="cls-12" d="M570.66,401.55s49.99,36.4,7.85-8.12l-9.83,4.63,1.97,3.49Z"/>
          </g>
          <g>
            <path class="cls-4" d="M529.26,270.61s18.25,25.34,9.31,53.43c-8.94,28.09-28.01,48.68-31.87,57.57,0,0,12.19-5.35,28.29-1.72,16.1,3.63,37.84,14.67,37.84,14.67l.7,11.87s-88.17,8.3-99.73,3.45c-11.56-4.85,8.56-87.52,8.56-87.52,0,0-28.41,1.85-44.47-3.13,0,0,8.21,11.5,9.76,34.95,1.55,23.45-6.92,51.11-6.92,51.11l-13.06,.06s-22.23-84.84-17.5-107.66c4.73-22.82,70.76-18.15,70.76-18.15l7.5-15.08,40.83,6.13Z"/>
            <path class="cls-15" d="M499.74,277.45c9.7,.96,22.78,2.24,32.06-2.65-.96-1.6-2.99-4.54-2.99-4.54l-40.4-5.78-5.03,10.12c5.36,1.32,10.81,2.3,16.36,2.85Z"/>
            <path class="cls-15" d="M482.34,322.37s-.05,.28-.13,.79c.19-.23,.42-.42,.68-.58-9.04-11.9-11.22-28.92-14.43-43.4-19.38-.09-54.88,2.03-58.3,18.54-4.73,22.82,17.5,107.66,17.5,107.66l13.06-.06s8.48-27.66,6.92-51.11c-1.55-23.45-9.76-34.95-9.76-34.95,16.06,4.98,44.47,3.13,44.47,3.13Z"/>
          </g>
        </g>
        <g>
          <g>
            <g>
              <path class="cls-7" d="M529.77,145.5s-21.15-8.66-29.55,7.5c-8.4,16.16-2.62,26.79-19.16,37.06-16.54,10.27-16.34,32.11,.19,43,16.53,10.89,46.55-5.48,46.55-5.48l1.97-82.08Z"/>
              <path class="cls-7" d="M530.82,146.93s-.46-.21-1.33-.55c-.88-.33-2.18-.79-3.88-1.23-1.69-.44-3.79-.87-6.21-1.04-2.42-.15-5.2-.08-8.05,.74-2.85,.8-5.75,2.43-7.96,5-1.12,1.29-2.07,2.69-2.9,4.33-.9,1.59-1.66,3.23-2.39,4.95-1.45,3.44-2.48,7.17-3.59,10.97-1.08,3.79-2.53,7.69-5.03,10.97-2.48,3.28-5.87,5.74-9.35,7.63-3.44,1.93-6.45,4.29-8.74,7.22-2.29,2.9-3.86,6.22-4.54,9.55-.71,3.32-.66,6.59-.15,9.52,.18,.72,.36,1.43,.54,2.12,.09,.34,.17,.69,.28,1.02,.13,.32,.25,.64,.38,.96,.25,.63,.49,1.25,.72,1.85,.31,.57,.6,1.12,.89,1.65,.31,.52,.53,1.08,.88,1.53,.33,.46,.65,.91,.95,1.34,.31,.42,.58,.86,.9,1.22,.33,.36,.64,.7,.93,1.02,.61,.63,1.08,1.26,1.61,1.69,.51,.45,.95,.82,1.31,1.13,.71,.62,1.09,.94,1.09,.94,0,0-.39-.32-1.12-.91-.36-.3-.81-.67-1.34-1.1-.55-.41-1.04-1.03-1.67-1.65-.31-.32-.63-.65-.97-1-.33-.36-.61-.78-.94-1.2-.32-.42-.65-.87-1-1.32-.37-.45-.61-1-.93-1.52-.31-.53-.62-1.08-.95-1.65-.26-.6-.52-1.22-.79-1.86-.13-.32-.27-.64-.41-.97-.12-.33-.2-.69-.3-1.03-.19-.7-.4-1.42-.59-2.15-.57-2.99-.68-6.33,0-9.77,.64-3.44,2.2-6.91,4.57-9.91,.52-.81,1.24-1.46,1.9-2.17,.34-.35,.66-.71,1.01-1.05l1.15-.93c1.5-1.35,3.19-2.25,4.9-3.33,3.42-1.88,6.67-4.28,9.03-7.43,2.41-3.12,3.84-6.87,4.94-10.64,1.13-3.77,2.19-7.55,3.68-11.03,.75-1.74,1.55-3.46,2.47-5,.83-1.59,1.9-3.13,3.06-4.41,2.34-2.64,5.4-4.28,8.34-5.05,2.95-.81,5.79-.79,8.23-.56,2.45,.25,4.54,.74,6.22,1.23,1.69,.49,2.98,.99,3.85,1.35,.87,.36,1.32,.59,1.32,.59Z"/>
            </g>
            <g>
              <path class="cls-19" d="M513.42,198.59s.3,12.3-1.5,13.5c-1.8,1.2-15.9-7.5-24.9,.3-9,7.8,15,38.7,21.9,39,6.9,.3,33.3-7.8,33-16.5-.3-8.7-14.7-17.7-13.5-35.7,1.2-18-15-.6-15-.6Z"/>
              <path class="cls-22" d="M513.1,208.16c5.35-.04,10.57-.89,15.39-3.17-.16-1.85-.2-3.78-.07-5.8,1.2-18-15-.6-15-.6,0,0,.13,5.56-.32,9.57Z"/>
              <path class="cls-19" d="M525.34,151.72s-14.85-1.12-21,14.49c-6.37,16.19-6.07,33.63,9.52,36.29,15.6,2.66,30.22-11.23,31.12-23.06,.9-11.83-1.35-26.24-19.65-27.72Z"/>
            </g>
            <g>
              <g>
                <path class="cls-11" d="M520.24,152.85s-2.47,11.25,14.17,21.15c0,0-20.7,37.57-3.15,49.27,17.55,11.7-1.13,28.26,6.74,37.03,7.87,8.77,33.99,3.92,44.33-19.26,13.95-31.27-31.72-36.9-23.62-63.44,0,0,6.52-19.35-7.87-30.15s-28.35-7.65-30.6,5.4Z"/>
                <path class="cls-11" d="M584.96,241.45s.17-.54,.5-1.54c.37-.99,.73-2.51,1.12-4.42,.3-1.93,.54-4.32,.2-7.01-.37-2.68-1.34-5.61-3.08-8.44-1.73-2.84-4.12-5.57-6.87-8.25-2.75-2.69-5.87-5.32-8.95-8.27-1.54-1.47-3.07-3.03-4.49-4.74-1.44-1.69-2.75-3.57-3.77-5.65-1.01-2.07-1.79-4.34-1.99-6.7-.11-.58-.07-1.18-.1-1.77-.01-.59-.04-1.18,.05-1.77l.17-1.76,.36-1.72c1.16-4.31,1.59-8.72,1.14-13.02-.45-4.28-1.83-8.39-4.23-11.69-1.19-1.65-2.61-3.09-4.14-4.32-.39-.29-.79-.63-1.15-.87-.42-.28-.84-.55-1.25-.83-.42-.27-.83-.54-1.24-.81-.42-.23-.83-.45-1.25-.68-3.3-1.81-6.77-3-10.04-3.37-3.27-.37-6.35,.1-8.76,1.26-2.43,1.15-4.07,2.95-5.11,4.58-.24,.42-.47,.82-.69,1.2-.2,.38-.32,.78-.47,1.13-.14,.35-.27,.68-.39,.98-.11,.31-.15,.6-.22,.85-.25,1.03-.38,1.58-.38,1.58,0,0,.1-.56,.28-1.6,.05-.26,.08-.56,.17-.87,.1-.31,.21-.65,.33-1.02,.13-.36,.22-.77,.41-1.18,.2-.4,.42-.82,.65-1.26,.98-1.72,2.6-3.69,5.1-5.03,2.48-1.36,5.73-2.01,9.19-1.72,3.47,.27,7.1,1.38,10.63,3.21,.44,.23,.89,.46,1.34,.69,.42,.26,.84,.52,1.26,.78,.42,.26,.85,.53,1.27,.79,.48,.31,.86,.61,1.29,.92,1.67,1.27,3.21,2.81,4.53,4.57,2.63,3.52,4.24,7.94,4.71,12.48,.5,4.53,.05,9.26-1.12,13.65l-.34,1.59-.16,1.6c-.08,.53-.06,1.07-.05,1.6,.02,.53-.02,1.07,.08,1.6,.17,2.13,.86,4.17,1.78,6.09,.93,1.91,2.13,3.69,3.48,5.34,1.34,1.65,2.8,3.2,4.29,4.67,2.99,2.94,6.05,5.68,8.78,8.47,2.74,2.78,5.12,5.7,6.81,8.71,1.73,3,2.59,6.13,2.84,8.91,.22,2.8-.14,5.22-.54,7.16-.48,1.93-.97,3.41-1.39,4.38-.39,.98-.6,1.51-.6,1.51Z"/>
              </g>
              <path class="cls-19" d="M538.69,177.59l-4.27,11.25s4.81,4.13,9-3.15c4.27-7.42-.22-11.47-4.72-8.1Z"/>
            </g>
          </g>
          <g>
            <path class="cls-5" d="M539.82,189.52c0,1.12-.91,2.02-2.02,2.02s-2.02-.91-2.02-2.02,.91-2.02,2.02-2.02,2.02,.91,2.02,2.02Z"/>
            <g>
              <path class="cls-25" d="M515.82,171.29c-.86,1.78-1.92,3.43-3.03,5.03-.27,.41-.57,.79-.85,1.18-.29,.39-.57,.79-.88,1.16-.59,.77-1.21,1.52-1.84,2.27l-.15-.83c1.24,.89,2.47,1.81,3.6,2.88-1.47-.53-2.84-1.21-4.2-1.92l-.53-.27,.37-.55c.55-.81,1.1-1.61,1.68-2.38,.28-.4,.58-.78,.88-1.16,.3-.38,.59-.77,.91-1.14,1.24-1.5,2.54-2.96,4.02-4.27Z"/>
              <path class="cls-12" d="M505.89,167.54s-.07,.25-.17,.7c-.1,.44-.24,1.07-.31,1.81-.03,.37-.04,.76-.03,1.17,.04,.4,.1,.81,.25,1.17,.12,.39,.39,.67,.67,.95,.14,.14,.34,.22,.5,.34,.19,.09,.4,.16,.6,.24,0,0,.1,.04,.03,.02l.09,.02,.19,.05,.38,.09c.25,.06,.42,.03,.63,.06,.2,.01,.42-.03,.63-.03,.21-.03,.41-.08,.61-.13,.39-.14,.77-.3,1.11-.52,.34-.22,.65-.46,.92-.71,.54-.5,.95-.99,1.22-1.35,.28-.36,.42-.58,.42-.58,0,0-.04,.26-.18,.7-.07,.22-.17,.49-.32,.78-.14,.3-.31,.63-.56,.95-.46,.67-1.18,1.4-2.2,1.84-.26,.09-.53,.18-.81,.25-.28,.04-.56,.1-.87,.09-.29-.02-.65-.02-.9-.07l-.38-.08-.19-.04-.09-.02c-.13-.04-.1-.03-.15-.05-.27-.12-.55-.22-.82-.36-.25-.18-.52-.32-.74-.55-.21-.23-.44-.44-.57-.72l-.21-.4-.13-.41c-.18-.55-.16-1.09-.13-1.57,.05-.48,.15-.92,.28-1.31,.25-.78,.58-1.36,.82-1.75,.25-.39,.42-.59,.42-.59Z"/>
              <path class="cls-12" d="M521.19,173.84s-.07,.25-.17,.7c-.1,.44-.24,1.07-.31,1.81-.03,.37-.04,.76-.03,1.17,.04,.4,.1,.81,.25,1.17,.12,.39,.39,.67,.67,.95,.14,.14,.34,.22,.5,.34,.19,.09,.4,.16,.6,.24,0,0,.1,.04,.03,.02l.09,.02,.19,.05,.38,.09c.25,.06,.42,.03,.63,.06,.2,.01,.42-.03,.63-.03,.21-.03,.41-.08,.61-.13,.39-.14,.77-.3,1.11-.52,.34-.22,.65-.46,.92-.71,.54-.5,.95-.99,1.22-1.35,.28-.36,.42-.58,.42-.58,0,0-.04,.26-.18,.7-.07,.22-.17,.49-.32,.78-.14,.3-.31,.63-.56,.95-.46,.67-1.18,1.4-2.2,1.84-.26,.09-.53,.18-.81,.25-.28,.04-.56,.1-.87,.09-.29-.02-.65-.02-.9-.07l-.38-.08-.19-.04-.09-.02c-.13-.04-.1-.03-.15-.05-.27-.12-.55-.22-.82-.36-.25-.18-.52-.32-.74-.55-.21-.23-.44-.44-.57-.72l-.21-.4-.13-.41c-.18-.55-.16-1.09-.13-1.57,.05-.48,.15-.92,.28-1.31,.25-.78,.58-1.36,.82-1.75,.25-.39,.42-.59,.42-.59Z"/>
              <path class="cls-25" d="M507.72,188.09s.69,.32,1.7,.68c.51,.18,1.09,.36,1.72,.52,.31,.09,.64,.15,.98,.21,.33,.08,.68,.11,1.01,.17,.34,.05,.69,.06,1.02,.11,.34,.02,.68,.04,1,.06,.33,0,.64,0,.95,0,.3,0,.59-.03,.86-.03,.54,0,1-.05,1.32-.06,.33-.01,.52,0,.52,0,0,0-.16,.1-.45,.26-.29,.15-.71,.4-1.25,.56-.27,.09-.56,.21-.88,.27-.32,.06-.66,.14-1.02,.18-.36,.02-.73,.06-1.11,.07-.38-.02-.77-.03-1.15-.08-.38-.07-.77-.11-1.13-.23-.37-.09-.72-.22-1.06-.36-.34-.12-.64-.3-.94-.45-.28-.17-.55-.33-.78-.51-.93-.68-1.33-1.36-1.33-1.36Z"/>
              <path class="cls-7" d="M521.97,167.99s.19-.16,.57-.33c.38-.18,.94-.38,1.65-.5,.71-.12,1.55-.12,2.45,.02,.44,.09,.91,.18,1.36,.36,.46,.15,.9,.38,1.33,.61,.44,.22,.81,.55,1.2,.84,.37,.3,.68,.67,.99,1,.29,.35,.52,.73,.74,1.07,.23,.34,.35,.72,.49,1.05,.28,.65,.35,1.26,.41,1.66,.05,.41,.05,.65,.05,.65,0,0-.21-.14-.52-.4-.15-.13-.35-.28-.54-.46-.18-.19-.45-.36-.69-.56-.25-.19-.47-.44-.77-.64-.27-.21-.55-.43-.85-.66-.31-.2-.6-.43-.91-.64-.33-.17-.61-.43-.96-.59-.64-.39-1.33-.71-1.99-1.02-.67-.28-1.33-.56-1.92-.76-.59-.23-1.11-.39-1.49-.52-.39-.13-.61-.2-.61-.2Z"/>
              <path class="cls-7" d="M507.09,161.74s.13-.18,.44-.4c.3-.22,.77-.5,1.39-.67,.61-.18,1.39-.28,2.2-.16,.82,.08,1.66,.4,2.42,.83,.35,.25,.74,.47,1.04,.77,.3,.29,.61,.57,.84,.89,.23,.32,.45,.63,.63,.94,.16,.32,.29,.63,.4,.92,.12,.28,.19,.56,.23,.81,.06,.24,.08,.47,.11,.65,.04,.36,.04,.58,.04,.58,0,0-.2-.1-.5-.3-.31-.18-.67-.51-1.14-.81-.23-.16-.46-.34-.69-.53-.25-.17-.51-.34-.75-.54-.24-.2-.53-.34-.78-.54-.26-.19-.54-.33-.79-.51-.27-.15-.54-.3-.81-.45-.28-.12-.54-.28-.82-.38-.27-.13-.54-.22-.81-.33-.27-.09-.53-.19-.78-.26-.5-.17-.96-.27-1.3-.36-.35-.08-.55-.12-.55-.12Z"/>
            </g>
          </g>
        </g>
        <g>
          <g>
            <g>
              <path class="cls-19" d="M474.57,229.34l-13.95,15.3-51.29-18.9-1.8,11.25s49.49,27,54.44,27,28.8-25.65,28.8-25.65l-16.2-9Z"/>
              <path class="cls-22" d="M431.83,234.03l-22.5-8.29-1.8,11.25s18.99,10.36,34.62,18.24c-3.24-7.17-6.53-14.31-10.32-21.2Z"/>
              <path class="cls-22" d="M486.87,242.45c2.37-2.46,3.9-4.11,3.9-4.11l-16.2-9-3.29,3.61c5.2,3.16,10.03,6.98,15.59,9.5Z"/>
              <path class="cls-22" d="M415.96,229.91s-.19-22.7-3.05-3.43c-2.86,19.27,3.05,3.43,3.05,3.43Z"/>
            </g>
            <path class="cls-23" d="M482.94,237.91l-11.74-8.49s12.64-19.32,22.72-20.03c0,0-10.08,20.03-10.99,28.52Z"/>
          </g>
          <g>
            <path class="cls-23" d="M493.92,209.39s-3.9,14.4,13.5,21.3,24.9-9.9,30.6-.3c5.7,9.6-8.1,41.1-8.1,41.1,0,0-24,1.8-42-6.6,0,0-.9-6.9-1.2-13.2,0,0-17.1-7.95,0-28.2l.3-11.1s2.1-3,6.9-3Z"/>
            <path class="cls-14" d="M522.23,258.98c-8.25-1.03-16.54-2.23-24.68-3.92-3.56-.74-7.41-1.63-10.81-3.26,.3,6.27,1.19,13.09,1.19,13.09,18,8.4,42,6.6,42,6.6,0,0,2.13-4.88,4.38-11.37-4.03-.26-8.06-.63-12.07-1.13Z"/>
          </g>
        </g>
        <g>
          <g>
            <g>
              <polygon class="cls-20" points="305.5 406.13 281.06 412.59 268.61 299.6 313.8 299.6 316.11 307.9 371.45 307.9 376.98 402.44 305.5 406.13"/>
              <polygon class="cls-5" points="285.21 408.44 282.44 312.05 406.96 311.59 381.13 405.67 285.21 408.44"/>
              <polygon class="cls-2" points="285.21 408.44 282.44 312.05 406.96 311.59 381.13 405.67 285.21 408.44"/>
              <polygon class="cls-5" points="293.97 406.13 291.21 314.82 415.72 314.36 389.89 408.44 293.97 406.13"/>
              <polygon class="cls-10" points="293.97 406.13 291.21 314.82 415.72 314.36 389.89 408.44 293.97 406.13"/>
            </g>
            <g>
              <polygon class="cls-5" points="337.04 357.7 334.28 266.4 458.79 265.93 454.64 360.47 337.04 357.7"/>
              <polygon class="cls-10" points="335.69 319.3 337.04 357.7 454.64 360.47 457.3 299.82 335.69 319.3"/>
            </g>
            <g>
              <polygon class="cls-5" points="293.47 291.3 290.7 199.99 415.21 199.53 411.06 294.07 293.47 291.3"/>
              <polygon class="cls-10" points="292.95 274.32 293.47 291.3 411.06 294.07 415.07 202.72 292.95 274.32"/>
            </g>
            <polygon class="cls-11" points="281.06 412.59 403.73 412.59 440.16 313.44 399.58 313.44 395.89 320.36 312.42 320.36 281.06 412.59"/>
          </g>
          <g>
            <path class="cls-19" d="M511.26,244.98l-23.31,25.39s-30.48,3.32-37.38,4.11c-.61,.07-1.12,.13-1.57,.19-7.91-6.14-4.56-1.65-2.75,.57-22.6,5.14-3.46,2.99-3.46,2.99-20.3,7.16,1.29,2,1.29,2-15.82,11.64,1.49,1.79,1.49,1.79-11.75,11.58,2.39,.9,2.39,.9,0,0,41.19,4.18,49.54,.6,8.36-3.58,25.67-22.09,25.67-22.09-6.86-4.18-11.91-16.43-11.91-16.43Z"/>
            <path class="cls-22" d="M520.8,263.88c1.47-1.51,2.37-2.47,2.37-2.47-6.86-4.18-11.91-16.43-11.91-16.43l-6.7,7.3c5.34,3.97,10.73,7.88,16.25,11.6Z"/>
            <path class="cls-23" d="M505.51,248.74l18.24,13.18s6.14-6.32,10.47-12.82-18.06-13.54-18.06-13.54l-10.65,13.18Z"/>
          </g>
        </g>
      </g>
    </g>
    <g>
      <ellipse class="cls-13" cx="145.89" cy="415.58" rx="71.76" ry="9.71"/>
      <g>
        <g>
          <g>
            <path class="cls-11" d="M113.97,94.8l-2.77,20.21-14.18,1.31s16.46,12.22,30.64,14.34c14.18,2.12,20.21-8.31,20.21-8.31l-16.8-3.88,2.61-19.4-19.72-4.28Z"/>
            <path class="cls-1" d="M113.97,94.8l-2.77,20.21-14.18,1.31s16.46,12.22,30.64,14.34c14.18,2.12,20.21-8.31,20.21-8.31l-16.8-3.88,2.61-19.4-19.72-4.28Z"/>
          </g>
          <g>
            <path class="cls-11" d="M110.36,71.3s-3.28-7.49-8.42-.47c-5.15,7.02,3.74,16.54,8.11,18.72s.31-18.25,.31-18.25Z"/>
            <path class="cls-11" d="M160.94,64.29s-3.23,39.68-15.49,46.78c-12.26,7.1-37.44,.99-35.81-29.36,1.94-36.13,20.65-39.68,28.07-39.68s24.2,9.68,23.23,22.26Z"/>
            <path class="cls-12" d="M132.51,53.36s1.4,12.95,18.41,18.25l-4.99-6.24s8.89,7.02,16.54,9.52l-1.25-6.08,2.81,4.06s1.25-4.99-.16-11.08l4.52,8.58s2.5-19.34-17.32-28.08c-19.81-8.74-27.15,2.34-27.15,2.34l4.21-.47s-9.36-8.74-17.16,2.34c-4.54,6.45-5.3,14.88-4.06,21.22,3.12,2.18,3.43,8.27,3.43,8.27l-.31,9.05,4.37,.94,1.25-16.69s9.67-5.77,9.36-16.07c0,0,.47,11.86,18.72,18.72l-11.23-18.56Z"/>
          </g>
        </g>
        <g>
          <path class="cls-12" d="M122.95,81.3s0-.33,.05-.89c.05-.57,.17-1.38,.43-2.33,.13-.48,.29-.99,.53-1.52,.23-.53,.51-1.08,.91-1.61,.18-.27,.44-.51,.67-.77,.29-.22,.55-.48,.9-.63l.53-.23c.18-.07,.38-.08,.57-.13,.39-.1,.78-.03,1.17,0l.15,.02h.04s.09,.03,.09,.03h.01s.06,.02,.06,.02l.23,.08,.45,.15c.34,.21,.76,.4,1.01,.66l.4,.39c.12,.14,.21,.29,.31,.44,.22,.29,.35,.6,.49,.91,.27,.61,.39,1.22,.49,1.8,.08,.57,.1,1.12,.1,1.61-.01,.99-.15,1.8-.27,2.36-.12,.56-.22,.87-.22,.87,0,0-.01-.33-.05-.88-.04-.56-.11-1.35-.26-2.28-.08-.46-.19-.95-.32-1.46-.15-.5-.33-1.01-.58-1.48-.25-.47-.57-.91-.96-1.23-.19-.19-.39-.23-.56-.38l-.46-.14-.23-.07-.06-.02h-.01s0,0,0,0c.15,.04,.04,.01,.07,.02h-.02s-.09,0-.09,0c-.25-.01-.5-.09-.74-.01-.12,.03-.24,.02-.36,.06l-.34,.14c-.23,.09-.43,.27-.65,.4-.19,.19-.41,.35-.57,.56-.35,.41-.68,.85-.94,1.31-.27,.45-.5,.9-.71,1.32-.41,.85-.71,1.59-.91,2.11-.2,.53-.32,.83-.32,.83Z"/>
          <path class="cls-12" d="M144.63,85.82s0-.33,.05-.89c.05-.57,.17-1.38,.43-2.33,.13-.48,.29-.99,.53-1.52,.23-.53,.51-1.08,.91-1.61,.18-.27,.44-.51,.67-.77,.29-.22,.55-.48,.9-.63l.53-.23c.18-.07,.38-.08,.57-.13,.39-.1,.78-.03,1.17,0l.15,.02h.04s.09,.03,.09,.03h.01s.06,.02,.06,.02l.23,.08,.45,.16c.34,.21,.76,.4,1.01,.66l.4,.39c.12,.14,.21,.29,.31,.44,.22,.29,.35,.6,.49,.91,.27,.61,.39,1.22,.49,1.8,.08,.57,.1,1.12,.1,1.61-.01,.99-.15,1.8-.27,2.36-.12,.56-.22,.87-.22,.87,0,0-.01-.33-.05-.89-.04-.56-.11-1.35-.26-2.28-.08-.46-.19-.95-.32-1.46-.15-.5-.33-1.01-.58-1.49-.25-.47-.57-.91-.96-1.23-.19-.19-.39-.23-.56-.38l-.46-.14-.23-.07-.06-.02h-.01s0,0,0,0c.15,.04,.04,.01,.07,.02h-.02s-.09,0-.09,0c-.25-.01-.5-.09-.74-.01-.12,.03-.24,.02-.36,.06l-.34,.14c-.23,.09-.43,.27-.65,.4-.19,.19-.41,.35-.57,.56-.35,.41-.68,.85-.94,1.31-.27,.45-.51,.9-.71,1.32-.41,.85-.71,1.59-.91,2.11-.2,.53-.32,.83-.32,.83Z"/>
          <path class="cls-3" d="M143.59,76.76c.4,1.54,.66,3.09,.91,4.64,.1,.78,.23,1.55,.31,2.33,.08,.78,.18,1.55,.24,2.33,.14,1.56,.23,3.12,.31,4.68,.05,1.56,.08,3.13,.05,4.7v.5s-.4,.07-.4,.07c-1.23,.24-2.48,.45-3.75,.56,1.12-.62,2.27-1.14,3.43-1.63l-.4,.57c-.24-1.55-.42-3.11-.58-4.66-.14-1.56-.25-3.12-.32-4.68-.05-.78-.05-1.56-.07-2.35-.02-.78,0-1.57,0-2.35,.04-1.57,.09-3.14,.28-4.72Z"/>
          <path class="cls-5" d="M123.93,95.48l22.62,4.68s-12.48,6.71-22.62-4.68Z"/>
          <path class="cls-12" d="M121.06,70.49s.15-.25,.49-.62c.33-.38,.85-.86,1.54-1.36,.7-.47,1.57-.99,2.61-1.33,.51-.2,1.06-.32,1.63-.43,.57-.11,1.17-.13,1.77-.15,.61,.06,1.21,.04,1.8,.22,.59,.13,1.16,.3,1.67,.58,.26,.13,.52,.24,.75,.38,.22,.16,.43,.33,.64,.48,.2,.16,.39,.32,.58,.47,.16,.18,.31,.36,.46,.53,.28,.35,.53,.65,.7,.96,.17,.31,.29,.6,.39,.83,.2,.46,.27,.73,.27,.73,0,0-.28-.13-.7-.37-.21-.12-.46-.26-.72-.43-.27-.16-.62-.28-.95-.45-.16-.08-.33-.17-.51-.25-.19-.06-.38-.13-.57-.19-.19-.07-.38-.14-.58-.22-.2-.05-.41-.09-.62-.14-.21-.04-.41-.12-.63-.15-.22-.02-.44-.05-.66-.08-.43-.09-.9-.05-1.35-.1-.46,0-.93,.01-1.39,.04-.47,.05-.93,.07-1.39,.14-.46,.05-.9,.13-1.33,.19-.43,.06-.84,.15-1.23,.21-1.6,.29-2.67,.49-2.67,.49Z"/>
          <path class="cls-12" d="M145.61,74.73s.13-.24,.42-.59c.29-.36,.75-.82,1.38-1.28,.32-.22,.67-.48,1.08-.68,.4-.21,.84-.41,1.33-.56,.47-.18,1-.27,1.54-.36,.54-.05,1.11-.08,1.68-.02,.57,.08,1.14,.15,1.67,.38,.55,.16,1.03,.45,1.48,.76,.47,.26,.8,.67,1.14,1,.35,.33,.56,.73,.76,1.08,.2,.35,.4,.65,.47,.98,.1,.31,.17,.58,.22,.8,.11,.45,.13,.7,.13,.7,0,0-.24-.15-.59-.41-.18-.13-.39-.29-.61-.47-.21-.2-.53-.33-.79-.54-.29-.18-.57-.4-.91-.54-.33-.15-.63-.38-1.01-.47-.18-.06-.35-.13-.53-.2-.18-.07-.37-.08-.56-.14-.36-.12-.76-.15-1.15-.2-.39-.06-.8-.04-1.2-.06-.41,.03-.82,.01-1.22,.07-.41,.03-.8,.09-1.19,.14-.39,.05-.76,.12-1.11,.16-.34,.08-.68,.11-.96,.17-.3,.05-.56,.1-.77,.14-.45,.08-.7,.12-.7,.12Z"/>
        </g>
      </g>
      <g>
        <g>
          <g>
            <g>
              <path class="cls-11" d="M125.4,378.18s1.71,32.01-.73,34.94c-2.44,2.93-58.39,17.35-11.48-7.09l-4.64-41.29,14.66,17.59"/>
              <path class="cls-12" d="M94.57,418.46c-1.41,4.9,28.33-3.22,30.1-5.34,.24-.29,.44-.88,.61-1.68-4.38,2.39-24.29,7.84-30.71,7.02Z"/>
              <path class="cls-12" d="M100.24,412.69l2.93-1.71,7.02,5.56-4.28,1.83s-2.87-5.56-8.18,.24l2.5-5.92Z"/>
            </g>
            <path class="cls-18" d="M125.98,400.77c.1-10.09-.57-22.58-.57-22.58l-2.2,4.15-14.66-17.59,4.1,36.47c4.44-.17,8.89-.32,13.33-.45Z"/>
          </g>
          <g>
            <g>
              <path class="cls-11" d="M155.89,378.18s-1.71,32.01,.73,34.94c2.44,2.93,59.62,16.78,12.71-7.65l-1.15-49.51-10.09,26.38"/>
              <path class="cls-12" d="M186.73,418.46c1.41,4.9-28.33-3.22-30.1-5.34-.24-.29-.44-.88-.61-1.68,4.38,2.39,24.29,7.84,30.71,7.02Z"/>
              <path class="cls-12" d="M182.23,412.15l-2.93-1.71-8.2,6.1,4.28,1.83s2.87-5.56,8.18,.24l-1.33-6.47Z"/>
            </g>
            <path class="cls-18" d="M169.22,400.48l-1.04-44.52-10.09,26.38-2.2-4.15s-.86,16.04-.49,26.45c4.66-1.2,9.3-2.51,13.82-4.15Z"/>
          </g>
        </g>
        <g>
          <polygon class="cls-23" points="90.66 237.26 110.22 396.66 127.48 396.54 123.88 253.45 131.97 253.9 154.47 394.74 172.32 393.24 161.82 222.71 90.66 237.26"/>
          <path class="cls-18" d="M160.75,236.17l-1.14-15.53-68.95,16.63,1.07,8.7c23.07-2.83,46.16-5.54,69.02-9.79Z"/>
          <polygon class="cls-17" points="106.31 389.82 128.46 389.31 129.29 397.4 109.16 399.26 106.31 389.82"/>
          <polygon class="cls-17" points="173.06 388.05 152.42 391.21 153.37 399.3 173.48 397.41 173.06 388.05"/>
        </g>
      </g>
      <g>
        <g>
          <path class="cls-11" d="M167.86,147.65l18.06,23.13s42.97-28.32,45.69-27.99-40.2,55.06-47.49,57.02c-7.29,1.96-40.18-42.63-40.18-42.63l23.93-9.53Z"/>
          <path class="cls-1" d="M173.42,154.78l-5.57-7.13-23.93,9.53s4.12,5.59,9.77,12.72c6.59-5.02,13.83-9.26,19.72-15.13Z"/>
          <path class="cls-1" d="M200.67,183.76c14.61-16.8,32.72-40.75,30.93-40.97-1.9-.24-23.56,13.59-36.36,21.89,1.97,6.32,3.94,12.64,5.43,19.08Z"/>
        </g>
        <g>
          <path class="cls-9" d="M107.78,115.01s-20.05-1.91-24.94,11.49c-4.89,13.4,1.47,88.54,5.87,111.51,0,0,42.54,4.31,76.77-4.79,0,0-6.85-68.91-5.87-81.36,.98-12.44,4.4-29.19-15.16-31.59,0,0-6.85,11.96-20.54,9.09-13.69-2.87-16.14-14.36-16.14-14.36Z"/>
          <path class="cls-14" d="M81.56,165.73c1.23,26.58,4.53,58.63,7.15,72.27,0,0,42.54,4.31,76.77-4.79,0,0-2.99-30.09-4.73-54.1-27.19-1.52-54.13-5.19-79.18-13.39Z"/>
          <path class="cls-9" d="M144.45,120.28s14.47-1.99,25.77,23.84l3.15,7.2-19.8,12.6-9.12-43.64Z"/>
        </g>
        <g>
          <g>
            <rect class="cls-4" x="176.57" y="177.42" width="58.94" height="11.25" transform="translate(-59.79 255.78) rotate(-56.92)"/>
            <rect class="cls-15" x="176.57" y="177.42" width="58.94" height="11.25" transform="translate(-59.79 255.78) rotate(-56.92)"/>
            <circle class="cls-4" cx="249.35" cy="119.13" r="54.05"/>
            <circle class="cls-23" cx="249.35" cy="119.13" r="43.19" transform="translate(-19.76 56.3) rotate(-12.39)"/>
            <rect class="cls-21" x="121.49" y="217.15" width="107.09" height="22.95" rx="7.2" ry="7.2" transform="translate(-112.07 250.5) rotate(-56.92)"/>
            <path class="cls-14" d="M200.67,181.43l3.02,1.96c-3.33-2.17-7.79-1.23-9.96,2.1l-50.59,77.67c-2.17,3.33-1.23,7.79,2.1,9.96l-3.02-1.96c-3.33-2.17-4.27-6.63-2.1-9.96l50.59-77.67c2.17-3.33,6.63-4.27,9.96-2.1Z"/>
            <g>
              <path class="cls-6" d="M287.61,99.11l-80.95,26.53c-.61-3.97-.67-8.03-.15-12.05l76.49-21.52c1.78,2.21,3.31,4.57,4.6,7.04Z"/>
              <path class="cls-6" d="M291.72,110.86c.45,2.3,.71,4.63,.79,6.97l-76.97,28.17c-2.47-3.11-4.49-6.52-6-10.12l82.19-25.02Z"/>
            </g>
          </g>
          <g>
            <path class="cls-11" d="M89.23,162.56l26.55-6.75s2.7,22.05,6.3,40.05c5.85,6.3,27.27,40.79,29.7,44.1,0,0,22.5,0,3.6,2.7,0,0,26.1,22.05-1.8,3.6,0,0,29.25,24.75-1.8,2.7,0,0,25.2,22.5-2.25,2.7,0,0,15.75,19.35-2.25,1.8-10.11-9.86-34.37-30.61-45-48.14-8.29-13.68-8.51-32.69-13.05-42.75Z"/>
            <path class="cls-1" d="M116.82,160.51c-.65-2.92-1.04-4.7-1.04-4.7l-26.55,6.75c.81,1.79,1.58,4,2.35,6.49,8.29-3.23,16.65-6.24,25.25-8.54Z"/>
          </g>
        </g>
      </g>
    </g>
  </g>
</svg>